<?xml version="1.0" encoding="utf-8"?>
<!-- Generator: Adobe Illustrator 17.1.0, SVG Export Plug-In . SVG Version: 6.00 Build 0)  -->
<!DOCTYPE svg PUBLIC "-//W3C//DTD SVG 1.1//EN" "http://www.w3.org/Graphics/SVG/1.1/DTD/svg11.dtd">
<svg version="1.1" id="Layer_2" xmlns="http://www.w3.org/2000/svg" xmlns:xlink="http://www.w3.org/1999/xlink" x="0px" y="0px"
	 viewBox="0 0 413.564 365" enable-background="new 0 0 413.564 365" xml:space="preserve">
<polygon fill="#F06597" points="102.75,77.671 142.5,120.25 140,169.25 161.5,226.5 237.75,276.5 170.25,211.25 153.375,155.167 
	148.75,106.5 "/>
<polygon fill="#33669A" points="171.664,221.975 289.15,330.274 246.691,155.167 "/>
<polygon fill="#1C3664" points="182.333,111.675 240.114,42.114 297.592,47.5 230.101,121.229 "/>
<polygon fill="#1C3664" points="245.355,344.75 273,362.5 307.761,365 317.558,357.3 254.22,297.534 "/>
<polygon fill="#9FC9EB" points="0,0 91.75,57.5 111,57.5 148.75,99.25 152.013,117.229 189.75,134.75 222.75,134.75 237.75,147 
	147.154,43.5 97.5,45 15.75,1.5 "/>
<polygon fill="#6699CC" points="413.564,15.564 296.71,26.141 205.894,122 302.975,200.435 322.69,137.594 339.134,121.583 
	349.25,87.667 363.459,81.191 381.975,45.423 398.203,38.802 "/>
<polygon fill="#33669A" points="246.691,96.273 246.691,176.399 173.917,136.594 209.809,117.17 "/>
<polygon fill="#33669A" points="243.452,111.34 318.162,135.75 334,121.229 "/>
<polygon fill="#33669A" points="278.408,71.449 345,86 357.917,80.167 "/>
<polygon fill="#33669A" points="378.039,43.331 392.766,38.114 299.25,32.727 "/>
<polygon fill="#1C3664" points="302.975,200.435 246.691,155.167 257.638,200.435 "/>
<path fill="#9FC9EB" d="M186.357,129.862c0,0,70.542-77.324,110.353-103.721l-28.111,61.257L186.357,129.862z"/>
<polygon fill="#1C3664" points="317.558,357.3 283.25,328.167 268.389,253.384 "/>
<polygon fill="#F499C1" points="186.357,129.862 147.154,105.917 152.461,160.137 "/>
<polygon fill="#33669A" points="22.75,14.257 105.201,80.296 186.357,129.862 174.094,103.861 114,55 93.25,53.75 "/>
<polygon fill="#1C3664" points="243.301,223.304 246.691,171.03 165.097,223.078 "/>
<polygon fill="#6699CC" points="245.355,289.904 245.355,344.75 266.501,335.5 261.812,296.344 "/>
<polygon fill="#6699CC" points="317.064,355.773 246.691,155.167 270.057,262.029 "/>
<polygon fill="#6699CC" points="241.101,210.307 163.751,223.304 152.461,160.137 186.357,129.862 246.691,171.03 "/>
</svg>
